# xmcd
#
# Track frame offsets:
#	150
#	25667
#	42962
#	77982
#	106765
#	134465
#	154695
#
# Disc length: 2349 seconds
#
# Revision: 0
# Processed by: cddbd v1.4PL0 Copyright (c) Steve Scherf et al.
# Submitted via: dBpowerAMP V4.0
#
DISCID=4d092b07
DTITLE=Kellys Lot - Come To This
DYEAR=2003
DGENRE=Blues
TTITLE0=Train
TTITLE1=Come To This
TTITLE2=Womans Love
TTITLE3=Happy Girl
TTITLE4=Only Human
TTITLE5=Take This Heart
TTITLE6=Today
EXTD=
EXTT0=
EXTT1=
EXTT2=
EXTT3=
EXTT4=
EXTT5=
EXTT6=
PLAYORDER=
